<svg width="98" height="127" fill="none" xmlns="http://www.w3.org/2000/svg">
  <path d="m8.941 93.127 40.677 20.822L88.75 93.127V11.706H8.94v81.421Z" fill="#0E132D" />
  <path opacity=".3" d="M89.574 12.017 8.118 94.577l42.221 21.03 39.235-20.2v-83.39Z" fill="#1A1F39" />
  <path
    d="M6.264 38.846V94.89l1.442.725 40.676 20.821 1.236.622 1.236-.622 39.235-20.821 1.442-.725V9.012H6.264v29.834Zm2.678 54.489v-81.63h79.911v81.63l-39.235 20.821L8.942 93.335Z"
    fill="#333852" />
  <path
    d="M48.897 13.052c.412 0 .824 0 1.236.104l-1.236 2.383c-1.853-.104-3.501 1.346-3.604 3.21-.103 1.865 1.339 3.523 3.192 3.627h.412c.824 0 1.648-.311 2.266-.83l1.338 2.28a6.216 6.216 0 0 1-3.604 1.14c-3.295.103-6.076-2.383-6.178-5.698-.104-3.315 2.368-6.112 5.663-6.216h.515Zm4.222 5.076 1.545 2.59-1.545 2.486-1.441-2.486H48.69l1.545-2.59h2.883Zm-2.471-.932c0-.414.103-.829.309-1.14.206-.31.618-.621.927-.828l.206-.104c.411-.207.514-.31.514-.518 0-.207-.309-.414-.514-.414-.412 0-.721.207-.927.621l-.515-.518c.103-.207.309-.414.515-.621.309-.207.618-.207.927-.207.308 0 .72.103.926.31.206.208.412.518.412.83 0 .517-.309.932-.927 1.139l-.308.207c-.31.207-.515.31-.618.621h1.853v.725l-2.78-.103Zm-1.75 12.949 9.782-5.594V9.012H39.011v15.435l9.886 5.698Z"
    fill="url(#a)" />
  <path d="M93.487 66.816H4.307l-3.295 7.251 3.296 7.251h89.18l3.191-7.251-3.192-7.251Z" fill="#23CCA2" />
  <path
    d="M32.73 78.107c-.076 0-.124-.035-.145-.104l-1.874-7.013-.01-.041c0-.063.037-.093.113-.093h1.01c.075 0 .123.034.143.103l1.174 4.724c.007.02.017.03.031.03.014 0 .024-.01.031-.03l1.122-4.724c.021-.069.066-.103.134-.103h.989c.075 0 .124.034.144.103l1.195 4.734c.007.02.017.031.03.031.014 0 .025-.01.032-.03l1.153-4.735c.02-.069.069-.103.144-.103h.958c.096 0 .134.044.113.134l-1.782 7.013c-.02.07-.068.104-.144.104h-.957c-.076 0-.124-.035-.145-.104l-1.204-4.941c-.007-.02-.018-.035-.031-.041-.014 0-.024.013-.031.04l-1.154 4.942c-.02.07-.065.104-.133.104h-.907Zm7.63 0a.128.128 0 0 1-.093-.042.112.112 0 0 1-.03-.082V70.98c0-.035.01-.062.03-.083a.128.128 0 0 1 .093-.041h.947c.035 0 .062.013.083.04.027.022.041.05.041.084v7.002a.099.099 0 0 1-.041.083.098.098 0 0 1-.083.042h-.947Zm6.766-7.127c0-.035.01-.062.03-.083a.128.128 0 0 1 .093-.041h.948c.034 0 .062.013.082.04.028.022.041.05.041.084v7.002a.099.099 0 0 1-.04.083.098.098 0 0 1-.083.042h-.917c-.068 0-.117-.028-.144-.083l-2.966-4.89c-.013-.02-.027-.03-.04-.03-.015.006-.022.023-.022.051l.021 4.828a.098.098 0 0 1-.041.082.097.097 0 0 1-.083.042h-.947a.127.127 0 0 1-.093-.042.112.112 0 0 1-.03-.082V70.98c0-.035.01-.062.03-.083a.128.128 0 0 1 .093-.041h.917c.068 0 .116.027.144.082l2.955 4.89c.014.02.028.027.041.02.014 0 .021-.013.021-.04l-.01-4.828Zm7.435-.124c.034 0 .062.013.082.04.028.022.041.05.041.084v.797a.098.098 0 0 1-.04.083.098.098 0 0 1-.083.042h-1.895c-.034 0-.051.017-.051.052v6.029c0 .034-.01.062-.031.082a.128.128 0 0 1-.093.042h-.947a.098.098 0 0 1-.083-.042.098.098 0 0 1-.041-.082v-6.03c0-.034-.017-.051-.052-.051h-1.822a.128.128 0 0 1-.093-.042.112.112 0 0 1-.03-.083v-.797c0-.035.01-.062.03-.083a.128.128 0 0 1 .093-.041h5.015Zm6.106.911a.098.098 0 0 1-.04.083.098.098 0 0 1-.083.041h-3.512c-.034 0-.051.018-.051.052v1.937c0 .035.017.052.051.052h2.359a.15.15 0 0 1 .092.031c.02.028.031.059.031.093v.788c0 .034-.01.065-.03.093a.15.15 0 0 1-.093.031h-2.359c-.034 0-.051.017-.051.052v2c0 .034.017.05.051.05h3.512c.034 0 .062.015.082.042.028.021.041.049.041.083v.788a.098.098 0 0 1-.04.082.098.098 0 0 1-.083.042H55.91a.128.128 0 0 1-.093-.042.112.112 0 0 1-.03-.082V70.98c0-.035.01-.062.03-.083a.128.128 0 0 1 .093-.041h4.634c.034 0 .062.013.082.04.028.022.041.05.041.084v.787Zm5.263 6.34a.146.146 0 0 1-.145-.094l-1.359-2.983c-.014-.028-.034-.041-.062-.041H63.13c-.035 0-.052.017-.052.051v2.942a.098.098 0 0 1-.041.083.098.098 0 0 1-.082.042h-.948a.128.128 0 0 1-.093-.042.112.112 0 0 1-.03-.082V70.98c0-.035.01-.062.03-.083a.128.128 0 0 1 .093-.041h2.832c.419 0 .79.086 1.112.258.323.18.574.429.752.746.178.325.268.694.268 1.109 0 .476-.124.88-.37 1.212-.241.338-.578.573-1.01.704-.014 0-.024.007-.031.02a.044.044 0 0 0 0 .042l1.452 3.015a.16.16 0 0 1 .02.062c0 .055-.037.083-.113.083h-.988Zm-2.801-6.216c-.035 0-.052.018-.052.052v2.062c0 .034.017.051.052.051h1.544c.33 0 .598-.1.804-.3.199-.193.298-.452.298-.777s-.1-.587-.298-.787c-.206-.2-.474-.3-.804-.3H63.13Z"
    fill="#242530" />
  <path
    d="M25.541 62.278c-.823 0-1.54-.13-2.152-.393-.625-.27-1.102-.65-1.431-1.14-.337-.49-.505-1.06-.505-1.709v-.342c0-.055.017-.1.052-.134a.204.204 0 0 1 .134-.052h1.76c.049 0 .093.017.134.052.035.034.052.079.052.134v.228c0 .415.192.763.576 1.046.378.29.893.435 1.545.435.543 0 .948-.117 1.215-.352.268-.235.402-.521.402-.86a.859.859 0 0 0-.247-.631 2.195 2.195 0 0 0-.67-.456c-.288-.124-.738-.3-1.349-.529a13.688 13.688 0 0 1-1.76-.735 3.638 3.638 0 0 1-1.205-1.015c-.323-.428-.484-.96-.484-1.596 0-.621.16-1.163.484-1.626.315-.47.755-.829 1.318-1.077.57-.249 1.225-.373 1.967-.373.782 0 1.48.141 2.09.425.611.276 1.092.666 1.442 1.17.343.497.515 1.08.515 1.75v.229c0 .055-.017.1-.052.134a.205.205 0 0 1-.134.052h-1.77a.18.18 0 0 1-.135-.052.167.167 0 0 1-.062-.134v-.125c0-.435-.175-.804-.525-1.108-.357-.304-.844-.456-1.462-.456-.487 0-.865.104-1.133.311-.274.2-.412.483-.412.85 0 .262.08.48.237.652.165.18.402.338.71.477.317.138.804.328 1.463.57.735.269 1.308.507 1.72.714.419.207.796.515 1.133.922.336.407.504.94.504 1.595 0 .974-.357 1.74-1.07 2.3-.708.566-1.673.85-2.895.85Zm9.979-7.924c0-.048.02-.093.062-.135a.168.168 0 0 1 .123-.052h1.813c.048 0 .093.018.134.052a.207.207 0 0 1 .051.135v7.614c0 .055-.017.1-.051.134a.204.204 0 0 1-.134.052h-1.813a.168.168 0 0 1-.123-.052.167.167 0 0 1-.062-.134v-.529c0-.027-.01-.044-.03-.051-.022-.007-.042.007-.063.041-.412.552-1.05.829-1.915.829-.783 0-1.425-.235-1.926-.705-.508-.476-.762-1.146-.762-2.01v-5.19c0-.047.02-.092.062-.134a.168.168 0 0 1 .124-.052H32.8c.055 0 .1.018.134.052a.207.207 0 0 1 .052.135v4.651c0 .414.113.75.34 1.005.22.262.525.394.916.394.35 0 .639-.108.865-.322.227-.214.364-.49.412-.828v-4.9Zm10.875 1.958c.185.525.278 1.146.278 1.864 0 .718-.096 1.368-.289 1.948-.24.663-.614 1.188-1.122 1.574-.508.387-1.14.58-1.895.58-.741 0-1.318-.258-1.73-.776-.02-.028-.041-.038-.062-.032-.02.007-.03.028-.03.063v3.325c0 .055-.018.1-.052.135a.18.18 0 0 1-.134.051h-1.802a.18.18 0 0 1-.134-.051.183.183 0 0 1-.052-.135V54.354c0-.048.018-.093.052-.135a.18.18 0 0 1 .134-.052h1.802c.055 0 .1.018.134.052a.207.207 0 0 1 .051.135v.507c0 .035.01.056.031.063.02.007.041 0 .062-.021.432-.573 1.03-.86 1.792-.86.714 0 1.332.2 1.853.6.515.401.886.957 1.113 1.669Zm-2.359 3.48c.254-.4.381-.95.381-1.647 0-.649-.106-1.167-.319-1.554-.24-.442-.621-.663-1.143-.663-.474 0-.83.221-1.07.663-.214.373-.32.898-.32 1.575 0 .69.113 1.23.34 1.616.233.414.583.622 1.05.622.46 0 .82-.204 1.081-.612Zm11.132-3.48c.186.525.278 1.146.278 1.864 0 .718-.096 1.368-.288 1.948-.24.663-.614 1.188-1.122 1.574-.508.387-1.14.58-1.895.58-.742 0-1.318-.258-1.73-.776-.02-.028-.041-.038-.062-.032-.02.007-.03.028-.03.063v3.325c0 .055-.018.1-.052.135a.18.18 0 0 1-.134.051H48.33a.18.18 0 0 1-.134-.051.183.183 0 0 1-.052-.135V54.354c0-.048.017-.093.052-.135a.18.18 0 0 1 .134-.052h1.802c.055 0 .1.018.134.052a.207.207 0 0 1 .051.135v.507c0 .035.01.056.031.063.02.007.041 0 .062-.021.432-.573 1.03-.86 1.792-.86.714 0 1.331.2 1.853.6.515.401.886.957 1.112 1.669Zm-2.358 3.48c.254-.4.381-.95.381-1.647 0-.649-.106-1.167-.32-1.554-.24-.442-.62-.663-1.142-.663-.474 0-.83.221-1.071.663-.213.373-.32.898-.32 1.575 0 .69.114 1.23.34 1.616.234.414.584.622 1.05.622.46 0 .821-.204 1.082-.612Zm7.507 2.486c-.865 0-1.606-.227-2.224-.683-.618-.456-1.04-1.078-1.267-1.865a5.525 5.525 0 0 1-.216-1.585c0-.608.072-1.157.216-1.647.234-.766.66-1.367 1.277-1.802.618-.435 1.363-.653 2.235-.653.837 0 1.555.214 2.152.642.604.435 1.03 1.036 1.277 1.803.158.518.237 1.06.237 1.626 0 .56-.069 1.084-.206 1.575-.233.808-.656 1.44-1.267 1.895-.61.463-1.349.694-2.214.694Zm0-1.874c.337 0 .625-.104.865-.311.234-.208.402-.494.505-.86.082-.332.123-.694.123-1.088 0-.435-.04-.8-.123-1.098-.11-.352-.285-.628-.525-.829a1.296 1.296 0 0 0-.855-.29c-.357 0-.649.097-.875.29-.234.2-.402.477-.505.83-.082.24-.123.607-.123 1.097 0 .47.034.832.102 1.088.104.366.279.653.526.86.24.207.535.31.885.31Zm9.052-6.34c.37 0 .666.072.886.217.082.042.113.118.092.228l-.33 1.772c-.006.124-.078.162-.215.114a1.56 1.56 0 0 0-.536-.083c-.09 0-.202.01-.34.03-.37.035-.686.173-.947.415-.254.242-.381.566-.381.974v4.237c0 .055-.02.1-.062.134a.168.168 0 0 1-.124.052H65.6a.204.204 0 0 1-.134-.052.183.183 0 0 1-.051-.134v-7.614c0-.048.017-.093.051-.135a.205.205 0 0 1 .134-.052h1.813c.048 0 .089.018.123.052a.189.189 0 0 1 .062.135v.59c0 .028.01.049.03.062.021.014.035.007.042-.02.426-.615.992-.922 1.7-.922Zm6.611 1.678a.17.17 0 0 1-.051.124.166.166 0 0 1-.134.062h-1.483c-.048 0-.072.025-.072.073v3.294c0 .338.069.594.206.767.137.165.36.248.67.248h.514c.048 0 .09.017.124.052.041.035.062.08.062.135v1.47c0 .118-.062.184-.186.197-.432.021-.741.032-.927.032-.858 0-1.496-.142-1.915-.425-.426-.283-.642-.819-.649-1.606v-4.164c0-.048-.027-.073-.082-.073h-.875c-.055 0-.1-.02-.134-.062a.17.17 0 0 1-.052-.124v-1.388c0-.048.017-.093.052-.135a.18.18 0 0 1 .134-.052h.875c.055 0 .082-.027.082-.083v-1.843c0-.049.017-.094.052-.135a.18.18 0 0 1 .134-.052h1.73c.048 0 .089.017.123.052a.188.188 0 0 1 .062.135v1.843c0 .056.024.083.072.083h1.483c.055 0 .1.018.134.052a.207.207 0 0 1 .051.135v1.388ZM39.907 40.949c-.062.028-.062.059 0 .093.975.505 1.462 1.347 1.462 2.528 0 1.008-.34 1.768-1.02 2.279-.679.511-1.568.767-2.666.767h-4.006a.168.168 0 0 1-.124-.052.167.167 0 0 1-.062-.135V35.925c0-.048.02-.093.062-.135a.168.168 0 0 1 .124-.051h3.882c2.437 0 3.656.994 3.656 2.983 0 1.036-.436 1.778-1.308 2.227Zm-4.16-3.335c-.048 0-.072.027-.072.083v2.423c0 .056.024.083.072.083h1.812c.48 0 .858-.114 1.133-.342.26-.227.391-.538.391-.932 0-.407-.13-.728-.391-.963-.275-.235-.652-.352-1.133-.352h-1.812Zm1.936 7.106c.473 0 .844-.12 1.112-.363.267-.241.401-.576.401-1.005 0-.42-.133-.756-.401-1.004-.268-.242-.646-.363-1.133-.363h-1.915c-.048 0-.072.028-.072.083v2.569c0 .055.024.083.072.083h1.936Zm12.275-2.921c.061.393.082.832.061 1.315-.006.132-.072.197-.195.197h-4.778c-.062 0-.083.024-.062.073.034.207.092.414.175.621.268.58.813.87 1.637.87.66-.007 1.178-.276 1.555-.808.041-.062.09-.093.144-.093.028 0 .062.02.103.062l1.113 1.098c.054.056.082.104.082.145 0 .021-.02.063-.062.125a3.326 3.326 0 0 1-1.318.984 4.291 4.291 0 0 1-1.761.352c-.886 0-1.634-.2-2.245-.6-.61-.408-1.05-.975-1.318-1.7-.22-.518-.33-1.194-.33-2.03 0-.573.08-1.077.237-1.513a3.371 3.371 0 0 1 1.246-1.75c.59-.435 1.291-.653 2.101-.653 1.03 0 1.857.3 2.482.901.625.601 1.002 1.402 1.133 2.404Zm-3.594-1.41c-.652 0-1.082.305-1.288.912a3.479 3.479 0 0 0-.102.498c0 .048.024.072.072.072h2.677c.062 0 .082-.024.062-.072a18.218 18.218 0 0 0-.083-.435c-.089-.311-.25-.553-.484-.725-.233-.166-.518-.25-.854-.25Zm8.063 6.33c-.694 0-1.298-.096-1.813-.29-.514-.193-.913-.466-1.194-.818a1.873 1.873 0 0 1-.422-1.202v-.155c0-.049.017-.093.051-.135a.18.18 0 0 1 .134-.052h1.71c.054 0 .1.018.133.052a.207.207 0 0 1 .052.135v.01c0 .235.127.432.38.59.255.16.57.239.948.239.35 0 .635-.07.855-.207.213-.145.32-.318.32-.518 0-.187-.093-.328-.279-.425-.185-.09-.487-.186-.906-.29a8.174 8.174 0 0 1-1.143-.363c-.66-.227-1.184-.507-1.576-.839-.39-.331-.587-.808-.587-1.43 0-.766.296-1.374.886-1.822.59-.45 1.377-.674 2.358-.674.66 0 1.236.104 1.73.311.495.214.879.514 1.154.901.267.38.401.815.401 1.305a.17.17 0 0 1-.051.125.18.18 0 0 1-.134.052h-1.648a.18.18 0 0 1-.134-.052.17.17 0 0 1-.051-.125c0-.227-.117-.42-.35-.58-.234-.159-.54-.238-.917-.238-.343 0-.621.066-.834.197-.22.124-.33.293-.33.508 0 .207.107.362.32.466.213.103.566.214 1.06.331.11.028.237.059.382.093.144.035.298.08.463.135.734.221 1.311.5 1.73.84.426.344.638.842.638 1.49 0 .767-.302 1.365-.906 1.793-.604.428-1.414.642-2.43.642Zm9.124-6.516a.17.17 0 0 1-.052.125.166.166 0 0 1-.134.062h-1.482c-.049 0-.073.024-.073.072v3.294c0 .339.07.594.206.767.138.166.364.249.68.249h.505c.048 0 .092.017.134.052.034.034.051.079.051.134v1.471c0 .118-.062.183-.185.197-.433.02-.742.031-.927.031-.858 0-1.497-.141-1.916-.425-.425-.283-.641-.818-.648-1.605v-4.165c0-.048-.028-.072-.083-.072h-.875c-.055 0-.1-.02-.134-.062a.17.17 0 0 1-.051-.125v-1.388c0-.048.017-.093.051-.134a.18.18 0 0 1 .134-.052h.875c.055 0 .083-.028.083-.083v-1.844c0-.048.017-.093.051-.135a.18.18 0 0 1 .134-.051h1.73c.048 0 .093.017.134.051a.207.207 0 0 1 .051.135v1.844c0 .055.024.083.073.083h1.482c.055 0 .1.017.134.052a.206.206 0 0 1 .052.134v1.388ZM35.469 96.815c-.02.021-.028.042-.02.063a.07.07 0 0 0 .061.03h4.047c.048 0 .09.018.124.052a.157.157 0 0 1 .061.125v1.46c0 .049-.02.09-.061.125a.168.168 0 0 1-.124.052h-6.714a.18.18 0 0 1-.134-.052.17.17 0 0 1-.052-.125v-1.388c0-.09.031-.165.093-.228.488-.476.985-.998 1.493-1.564.508-.566.828-.918.958-1.056.275-.332.556-.65.844-.953.907-1.009 1.36-1.758 1.36-2.248 0-.353-.124-.643-.37-.87-.248-.222-.57-.332-.969-.332-.398 0-.72.11-.968.331-.254.228-.38.529-.38.902v.373a.17.17 0 0 1-.052.124.168.168 0 0 1-.124.052h-1.76a.168.168 0 0 1-.124-.052.157.157 0 0 1-.062-.124v-.705a2.67 2.67 0 0 1 .515-1.44 2.972 2.972 0 0 1 1.225-.953 4.345 4.345 0 0 1 1.73-.331c.707 0 1.322.134 1.843.404.522.262.924.618 1.205 1.067.289.456.433.956.433 1.502 0 .421-.107.853-.32 1.295-.205.442-.518.918-.937 1.43-.309.386-.642.773-.998 1.16-.358.38-.89.928-1.597 1.647l-.226.227Zm9.124 2.072c-1.099 0-1.964-.307-2.595-.922-.639-.614-.958-1.454-.958-2.517v-3.967c0-1.043.32-1.869.958-2.476.631-.615 1.496-.922 2.595-.922 1.091 0 1.96.307 2.605.922.639.607.958 1.433.958 2.476v3.967c0 1.064-.32 1.903-.958 2.517-.645.615-1.514.922-2.605.922Zm0-1.813c.446 0 .8-.138 1.06-.414.268-.276.402-.646.402-1.108v-4.134c0-.455-.134-.821-.402-1.098-.26-.276-.614-.414-1.06-.414-.44 0-.79.138-1.05.414-.268.277-.402.643-.402 1.098v4.134c0 .462.134.832.401 1.108.261.276.611.414 1.05.414Zm7.744-.259c-.02.021-.024.042-.01.063.006.02.027.03.061.03h4.047c.048 0 .09.018.124.052a.17.17 0 0 1 .051.125v1.46a.17.17 0 0 1-.051.125.168.168 0 0 1-.124.052h-6.724a.168.168 0 0 1-.124-.052.17.17 0 0 1-.051-.125v-1.388c0-.09.027-.165.082-.228a27.4 27.4 0 0 0 1.493-1.564c.508-.566.828-.918.958-1.056.281-.332.566-.65.855-.953.906-1.009 1.359-1.758 1.359-2.248 0-.353-.124-.643-.37-.87-.255-.222-.58-.332-.979-.332-.398 0-.72.11-.968.331-.247.228-.37.529-.37.902v.373a.17.17 0 0 1-.052.124.18.18 0 0 1-.134.052h-1.761a.168.168 0 0 1-.124-.052.17.17 0 0 1-.051-.124v-.705a2.606 2.606 0 0 1 .505-1.44 2.96 2.96 0 0 1 1.235-.953 4.317 4.317 0 0 1 1.72-.331c.707 0 1.322.134 1.843.404.529.262.934.618 1.215 1.067.282.456.423.956.423 1.502 0 .421-.103.853-.31 1.295-.212.442-.528.918-.947 1.43-.309.386-.642.773-.999 1.16-.356.38-.889.928-1.596 1.647l-.226.227Zm12.213-2.89c.151.49.227.967.227 1.43 0 .51-.08.974-.237 1.388a2.983 2.983 0 0 1-1.205 1.523c-.584.373-1.263.56-2.04.56-.754 0-1.417-.184-1.987-.55a2.938 2.938 0 0 1-1.215-1.492 4.093 4.093 0 0 1-.226-.828v-.032c0-.11.058-.165.175-.165h1.812c.096 0 .162.055.196.165.007.063.02.114.041.156a.54.54 0 0 1 .041.103c.103.263.254.463.453.601.2.138.433.207.7.207.282 0 .526-.075.732-.227.206-.145.36-.353.463-.622.096-.2.144-.463.144-.787 0-.29-.044-.55-.134-.777a.997.997 0 0 0-.412-.601 1.267 1.267 0 0 0-.73-.218c-.282 0-.543.066-.783.197a1.01 1.01 0 0 0-.474.518c-.027.097-.093.145-.196.145h-1.833a.18.18 0 0 1-.133-.052.17.17 0 0 1-.052-.124v-6.06a.17.17 0 0 1 .051-.124.18.18 0 0 1 .134-.052h6.169c.048 0 .089.017.123.052a.17.17 0 0 1 .052.124v1.46a.17.17 0 0 1-.052.125.168.168 0 0 1-.123.052h-4.17c-.049 0-.073.028-.073.083l-.02 2.217c0 .069.03.086.092.051.446-.29.965-.435 1.555-.435.694 0 1.301.176 1.823.529.529.359.9.846 1.112 1.46Z"
    fill="#fff" />
  <defs>
    <linearGradient id="a" x1="48.846" y1="9.012" x2="48.846" y2="30.145" gradientUnits="userSpaceOnUse">
      <stop stop-color="#fff" />
      <stop offset="1" stop-color="#BBC0C7" />
    </linearGradient>
  </defs>
</svg>