<svg width="97" height="127" fill="none" xmlns="http://www.w3.org/2000/svg">
  <path d="m8.541 93.127 40.677 20.822L88.35 93.127V11.706H8.542v81.421Z" fill="#0E132D" />
  <path opacity=".3" d="M89.174 12.017 7.718 94.577l42.221 21.03 39.235-20.2v-83.39Z" fill="#1A1F39" />
  <path
    d="M5.864 38.846V94.89l1.442.725 40.677 20.821 1.235.622 1.236-.622 39.235-20.821 1.442-.725V9.012H5.864v29.834Zm2.678 54.489v-81.63h79.911v81.63l-39.235 20.821L8.542 93.335Z"
    fill="#333852" />
  <path
    d="M48.886 13.04c.412 0 .824 0 1.236.104l-1.236 2.382c-1.854-.103-3.501 1.347-3.604 3.212-.103 1.864 1.338 3.521 3.192 3.625h.412c.824 0 1.648-.31 2.265-.829l1.34 2.28a6.217 6.217 0 0 1-3.605 1.139c-3.295.104-6.076-2.383-6.179-5.698-.103-3.314 2.369-6.111 5.664-6.215h.515Zm4.222 5.076 1.545 2.59-1.545 2.486-1.442-2.486H48.68l1.545-2.59h2.883Zm-2.471-.932c0-.415.103-.83.309-1.14.206-.31.617-.621.926-.829l.206-.103c.412-.207.515-.311.515-.518 0-.207-.309-.414-.515-.414-.412 0-.72.207-.927.621l-.514-.518c.103-.207.309-.414.514-.621.31-.208.618-.208.927-.208.31 0 .721.104.927.311.206.207.412.518.412.829 0 .518-.309.932-.927 1.14l-.309.207c-.309.207-.515.31-.618.621h1.854v.725l-2.78-.103Zm-1.751 12.948 9.783-5.594V9H39v15.435l9.886 5.697Z"
    fill="url(#a)" />
  <path d="M93.475 66.81H4.295L1 74.061l3.295 7.251h89.18l3.192-7.25-3.192-7.252Z" fill="#FF492C" />
  <path
    d="M32.33 78.107c-.076 0-.124-.034-.145-.104l-1.874-7.013-.01-.041c0-.062.038-.093.113-.093h1.01c.075 0 .123.034.143.103l1.174 4.724c.007.02.017.031.031.031.014 0 .024-.01.031-.031l1.123-4.724c.02-.069.065-.103.133-.103h.99c.075 0 .123.034.143.103l1.195 4.734c.007.021.017.031.03.031.014 0 .025-.01.032-.03l1.153-4.735c.02-.069.069-.103.144-.103h.958c.096 0 .134.045.113.134l-1.781 7.013c-.021.07-.07.104-.145.104h-.957c-.076 0-.124-.034-.145-.104l-1.204-4.94c-.007-.022-.017-.035-.031-.042-.014 0-.024.014-.031.041l-1.154 4.941c-.02.07-.065.104-.133.104h-.906Zm7.63 0a.128.128 0 0 1-.093-.041.112.112 0 0 1-.03-.083V70.98c0-.035.01-.062.03-.083a.128.128 0 0 1 .093-.041h.948c.034 0 .061.014.082.041.027.02.041.048.041.083v7.003a.099.099 0 0 1-.041.083.098.098 0 0 1-.082.041h-.948Zm6.766-7.127c0-.035.01-.062.03-.083a.128.128 0 0 1 .093-.041h.948c.034 0 .062.014.082.041.028.02.041.048.041.083v7.003a.099.099 0 0 1-.04.083.098.098 0 0 1-.083.041h-.917c-.068 0-.116-.028-.144-.083l-2.966-4.89c-.013-.02-.027-.03-.04-.03-.014.007-.021.024-.021.051l.02 4.828a.099.099 0 0 1-.041.083.098.098 0 0 1-.082.041h-.948a.128.128 0 0 1-.093-.041.113.113 0 0 1-.03-.083V70.98c0-.035.01-.062.03-.083a.128.128 0 0 1 .093-.041h.917c.068 0 .116.027.144.083l2.955 4.889c.014.02.028.028.042.02.013 0 .02-.013.02-.04l-.01-4.828Zm7.435-.124c.034 0 .062.014.082.041.028.02.041.048.041.083v.798a.098.098 0 0 1-.04.082.097.097 0 0 1-.083.042h-1.895c-.034 0-.051.017-.051.052v6.029c0 .034-.01.062-.031.083a.128.128 0 0 1-.093.041h-.947a.098.098 0 0 1-.083-.041.099.099 0 0 1-.04-.083v-6.03c0-.034-.018-.051-.052-.051h-1.823a.128.128 0 0 1-.093-.041.112.112 0 0 1-.03-.083v-.798c0-.035.01-.062.03-.083a.128.128 0 0 1 .093-.041h5.015Zm6.107.911a.099.099 0 0 1-.042.083.098.098 0 0 1-.082.042h-3.512c-.034 0-.051.017-.051.051v1.938c0 .034.017.051.051.051h2.359a.15.15 0 0 1 .092.031c.02.028.031.06.031.094v.787c0 .035-.01.066-.03.093a.15.15 0 0 1-.093.031h-2.359c-.034 0-.051.017-.051.052v2c0 .034.017.051.051.051h3.512c.034 0 .062.014.082.042.028.02.042.048.042.082v.788a.099.099 0 0 1-.042.083.098.098 0 0 1-.082.041H55.51a.128.128 0 0 1-.093-.041.112.112 0 0 1-.03-.083V70.98c0-.035.01-.062.03-.083a.128.128 0 0 1 .093-.041h4.634c.034 0 .062.014.082.041.028.02.042.048.042.083v.787Zm5.262 6.34a.146.146 0 0 1-.144-.093l-1.36-2.984c-.013-.027-.034-.041-.061-.041h-1.236c-.035 0-.052.017-.052.052v2.942a.099.099 0 0 1-.04.083.098.098 0 0 1-.083.041h-.948a.128.128 0 0 1-.092-.041.112.112 0 0 1-.031-.083V70.98c0-.035.01-.062.03-.083a.128.128 0 0 1 .093-.041h2.832c.419 0 .79.086 1.112.259.323.18.574.428.752.746.179.324.268.694.268 1.108 0 .477-.124.88-.37 1.212-.241.338-.578.573-1.01.704-.014 0-.024.007-.03.021a.044.044 0 0 0 0 .041l1.451 3.015a.16.16 0 0 1 .02.062c0 .055-.037.083-.113.083h-.988Zm-2.801-6.215c-.035 0-.052.017-.052.051v2.062c0 .034.017.052.052.052h1.544c.33 0 .598-.1.804-.3.199-.194.298-.453.298-.778 0-.324-.1-.587-.298-.787-.206-.2-.474-.3-.803-.3h-1.545ZM18.015 51.267c.68 0 1.277.138 1.792.414.515.276.913.674 1.195 1.191.281.511.422 1.099.422 1.761 0 .656-.144 1.233-.432 1.73-.296.49-.708.874-1.236 1.15-.529.276-1.14.415-1.833.415h-2.194c-.048 0-.072.027-.072.083v3.957c0 .055-.02.1-.062.134a.18.18 0 0 1-.133.052h-1.803a.18.18 0 0 1-.133-.052.183.183 0 0 1-.052-.134V51.453c0-.055.017-.1.052-.134a.18.18 0 0 1 .133-.052h4.356Zm-.329 4.91c.48 0 .861-.138 1.143-.414.288-.277.433-.636.433-1.078 0-.462-.145-.832-.433-1.108-.282-.283-.663-.425-1.143-.425h-1.957c-.048 0-.072.028-.072.083v2.86c0 .054.024.082.072.082h1.957Zm11.534 1.16c.055.394.072.832.051 1.316-.007.131-.072.197-.196.197h-4.767c-.062 0-.086.024-.073.072.035.207.093.415.175.622.268.58.814.87 1.638.87.659-.007 1.177-.276 1.555-.808.048-.062.096-.093.144-.093.027 0 .062.02.103.062l1.112 1.098c.055.055.082.103.082.145 0 .02-.02.062-.061.124-.343.428-.78.756-1.308.984a4.41 4.41 0 0 1-1.771.352c-.88 0-1.627-.2-2.245-.6-.611-.408-1.05-.974-1.318-1.7-.22-.517-.33-1.194-.33-2.03 0-.573.079-1.077.237-1.512.24-.732.655-1.316 1.246-1.75.59-.436 1.29-.653 2.1-.653 1.03 0 1.858.3 2.482.9.625.602 1.006 1.403 1.144 2.404Zm-3.605-1.409c-.652 0-1.081.304-1.287.912a3.478 3.478 0 0 0-.103.497c0 .048.028.073.082.073h2.668c.061 0 .082-.024.061-.073a18.218 18.218 0 0 0-.082-.435c-.09-.31-.25-.552-.484-.725-.226-.166-.511-.249-.855-.249Zm8.96-1.864c.37 0 .665.072.885.217.076.042.103.118.082.228l-.319 1.772c-.007.124-.079.162-.216.114a1.614 1.614 0 0 0-.535-.083c-.083 0-.2.01-.35.03a1.557 1.557 0 0 0-.938.415c-.254.242-.38.566-.38.974v4.237c0 .055-.021.1-.063.134a.168.168 0 0 1-.123.052h-1.813a.204.204 0 0 1-.133-.052.182.182 0 0 1-.052-.134v-7.614c0-.049.017-.093.052-.135a.204.204 0 0 1 .133-.052h1.813c.048 0 .09.018.123.052a.188.188 0 0 1 .062.135v.59c0 .028.01.049.031.062.014.014.028.007.041-.02.426-.615.992-.922 1.7-.922Zm6.58.093c.055 0 .1.017.134.052.034.034.051.08.051.134v1.471c0 .056-.017.1-.051.135a.18.18 0 0 1-.134.052h-1.493c-.055 0-.083.024-.083.072v5.895c0 .055-.017.1-.051.134a.18.18 0 0 1-.134.052h-1.802a.18.18 0 0 1-.134-.052.182.182 0 0 1-.052-.134v-5.895c0-.048-.027-.072-.082-.072h-.906a.18.18 0 0 1-.134-.052.183.183 0 0 1-.052-.135v-1.47c0-.056.018-.1.052-.135a.18.18 0 0 1 .134-.052h.906c.055 0 .082-.028.082-.083v-.342c0-.642.096-1.143.289-1.502.199-.352.515-.604.947-.756.44-.152 1.047-.218 1.823-.197h.587c.048 0 .09.017.123.052a.189.189 0 0 1 .062.135v1.253c0 .055-.02.1-.062.135a.156.156 0 0 1-.123.062h-.515c-.357.007-.608.08-.752.217-.137.145-.206.404-.206.777v.166c0 .055.028.083.083.083h1.493Zm4.48 8.121c-.866 0-1.607-.227-2.225-.683-.618-.456-1.04-1.078-1.267-1.865a5.525 5.525 0 0 1-.216-1.585c0-.608.072-1.157.216-1.647.24-.767.67-1.367 1.288-1.802.617-.435 1.359-.653 2.224-.653.837 0 1.558.214 2.163.642.59.435 1.009 1.036 1.256 1.803.172.518.257 1.06.257 1.626a5.56 5.56 0 0 1-.216 1.575c-.227.808-.649 1.44-1.267 1.895-.61.463-1.349.694-2.214.694Zm0-1.875c.336 0 .624-.103.864-.31.24-.208.412-.494.515-.86.076-.332.114-.694.114-1.088 0-.435-.038-.8-.114-1.098-.116-.352-.292-.628-.525-.829a1.352 1.352 0 0 0-.875-.29c-.343 0-.632.097-.865.29-.234.2-.402.477-.505.83-.082.24-.123.607-.123 1.097 0 .47.037.832.113 1.088.103.366.274.653.515.86.24.207.535.31.885.31Zm9.051-6.34c.37 0 .666.073.886.218.082.042.11.118.082.228l-.319 1.772c-.007.124-.079.162-.216.114a1.614 1.614 0 0 0-.536-.083c-.082 0-.195.01-.34.03-.37.035-.686.173-.947.415-.254.242-.381.566-.381.974v4.237c0 .055-.02.1-.062.134a.18.18 0 0 1-.134.052h-1.802a.205.205 0 0 1-.134-.052.183.183 0 0 1-.051-.134v-7.614c0-.049.017-.093.051-.135a.205.205 0 0 1 .134-.052h1.802c.055 0 .1.018.134.052a.188.188 0 0 1 .062.135v.59c0 .028.007.049.02.062.028.014.045.007.052-.02.426-.615.992-.922 1.7-.922Zm10.762-.02c.803 0 1.43.242 1.884.725.453.49.68 1.178.68 2.062v5.138c0 .055-.017.1-.052.134a.168.168 0 0 1-.123.052h-1.813a.205.205 0 0 1-.134-.052.183.183 0 0 1-.051-.134v-4.662c0-.421-.107-.756-.32-1.005-.22-.248-.51-.373-.875-.373a1.13 1.13 0 0 0-.875.373c-.227.249-.34.58-.34.995v4.672c0 .055-.017.1-.051.134a.205.205 0 0 1-.134.052h-1.792a.18.18 0 0 1-.134-.052.183.183 0 0 1-.051-.134v-4.662c0-.414-.114-.75-.34-1.005-.227-.248-.522-.373-.886-.373-.323 0-.597.097-.824.29-.22.2-.35.477-.391.83v4.92c0 .055-.017.1-.051.134a.205.205 0 0 1-.134.052h-1.802a.18.18 0 0 1-.134-.052.183.183 0 0 1-.052-.134v-7.614c0-.049.017-.093.052-.135a.18.18 0 0 1 .134-.052h1.802c.048 0 .092.018.134.052a.207.207 0 0 1 .051.135v.611c0 .028.01.048.03.062.021.007.042-.007.063-.041.425-.629 1.08-.943 1.967-.943.514 0 .964.11 1.349.331.384.215.68.525.885.933.028.062.065.062.113 0 .22-.428.526-.746.917-.953a2.69 2.69 0 0 1 1.297-.311Zm11.08 3.294c.062.394.082.832.062 1.316-.014.131-.083.197-.206.197h-4.768c-.062 0-.082.024-.062.072.028.207.082.415.165.622.268.58.813.87 1.637.87.66-.007 1.181-.276 1.566-.808.04-.062.085-.093.133-.093.035 0 .072.02.114.062l1.112 1.098c.048.055.072.103.072.145 0 .02-.02.062-.062.124a3.243 3.243 0 0 1-1.308.984 4.337 4.337 0 0 1-1.76.352c-.886 0-1.635-.2-2.246-.6a3.377 3.377 0 0 1-1.328-1.7c-.213-.517-.32-1.194-.32-2.03 0-.573.076-1.077.227-1.512.24-.732.656-1.316 1.246-1.75.59-.436 1.294-.653 2.111-.653 1.03 0 1.858.3 2.482.9.625.602 1.003 1.403 1.133 2.404Zm-3.604-1.409c-.646 0-1.071.304-1.277.912a4.566 4.566 0 0 0-.114.497c0 .048.028.073.083.073h2.667c.062 0 .082-.024.062-.073a20.85 20.85 0 0 0-.072-.435 1.401 1.401 0 0 0-.484-.725c-.234-.166-.522-.249-.865-.249Zm8.959-1.864c.37 0 .666.072.886.217.082.042.113.118.092.228l-.319 1.772c-.014.124-.09.162-.227.114a1.558 1.558 0 0 0-.535-.083c-.082 0-.196.01-.34.03-.37.035-.686.173-.947.415-.254.242-.381.566-.381.974v4.237c0 .055-.017.1-.052.134a.205.205 0 0 1-.134.052h-1.812a.168.168 0 0 1-.124-.052.167.167 0 0 1-.061-.134v-7.614c0-.049.02-.093.061-.135a.168.168 0 0 1 .124-.052h1.812c.048 0 .093.018.134.052a.207.207 0 0 1 .052.135v.59c0 .028.01.049.03.062.021.014.038.007.052-.02.419-.615.982-.922 1.689-.922Zm-42.49-18.139c0-.048.018-.093.052-.135a.168.168 0 0 1 .124-.051h1.812c.048 0 .093.017.134.051a.206.206 0 0 1 .052.135V46.43c0 .055-.017.1-.052.135a.204.204 0 0 1-.134.052H39.57a.168.168 0 0 1-.124-.052.182.182 0 0 1-.051-.135v-4.288c0-.049-.028-.073-.082-.073h-3.42c-.048 0-.072.024-.072.073v4.288c0 .055-.017.1-.051.135a.205.205 0 0 1-.134.052h-1.812a.168.168 0 0 1-.124-.052.168.168 0 0 1-.062-.135V35.925c0-.048.021-.093.062-.135a.168.168 0 0 1 .124-.051h1.812c.048 0 .093.017.134.051a.207.207 0 0 1 .052.135V40.1c0 .055.023.083.072.083h3.419c.054 0 .082-.028.082-.083v-4.175Zm4.985 1.803c-.35 0-.642-.118-.875-.353a1.164 1.164 0 0 1-.35-.87c0-.366.113-.663.34-.89.226-.229.521-.343.885-.343s.66.114.886.342c.226.228.34.525.34.891 0 .352-.117.642-.35.87a1.184 1.184 0 0 1-.876.352Zm-.927 8.888a.204.204 0 0 1-.134-.052.182.182 0 0 1-.051-.135v-7.624c0-.055.017-.1.051-.135a.204.204 0 0 1 .134-.052h1.813c.048 0 .089.018.123.052.041.035.062.08.062.135v7.624c0 .055-.02.1-.062.135a.168.168 0 0 1-.123.052H43.45Zm8.537-7.8c0-.05.02-.094.062-.135a.168.168 0 0 1 .123-.052h1.813c.048 0 .093.017.134.052a.206.206 0 0 1 .051.134v7.086c0 1.353-.388 2.32-1.163 2.9-.776.587-1.778.88-3.007.88-.364 0-.766-.027-1.205-.082-.103-.014-.155-.08-.155-.197l.062-1.605c0-.139.072-.197.216-.177a6.2 6.2 0 0 0 1.02.094c.659 0 1.167-.142 1.524-.425.35-.297.525-.763.525-1.398 0-.035-.01-.056-.03-.063-.021-.007-.042.004-.063.031-.39.422-.96.632-1.709.632a3.59 3.59 0 0 1-1.843-.487c-.563-.324-.965-.849-1.205-1.574-.151-.477-.227-1.095-.227-1.854 0-.808.093-1.465.278-1.969a3.04 3.04 0 0 1 1.092-1.522c.515-.387 1.116-.58 1.802-.58.79 0 1.394.238 1.813.714.02.021.04.028.061.021.02-.007.031-.024.031-.052v-.373Zm-.123 5.013c.082-.304.123-.729.123-1.274 0-.318-.01-.563-.03-.736a2.881 2.881 0 0 0-.104-.507c-.096-.276-.25-.5-.463-.674-.213-.165-.48-.248-.803-.248-.31 0-.57.083-.783.248-.22.173-.381.398-.484.674-.144.31-.216.732-.216 1.264 0 .58.062.994.185 1.243.09.283.25.507.484.673.233.173.508.259.824.259.33 0 .604-.086.824-.259a1.28 1.28 0 0 0 .443-.663Zm8.011-5.325c.824 0 1.487.256 1.988.767.501.504.752 1.191.752 2.062v5.096c0 .055-.018.1-.052.135a.168.168 0 0 1-.123.052h-1.813a.205.205 0 0 1-.134-.052.183.183 0 0 1-.051-.135v-4.651c0-.407-.117-.742-.35-1.005-.227-.255-.533-.383-.917-.383-.378 0-.683.128-.916.383-.234.262-.35.597-.35 1.005v4.651c0 .055-.018.1-.052.135a.18.18 0 0 1-.134.052h-1.802a.18.18 0 0 1-.134-.052.183.183 0 0 1-.051-.135V35.925c0-.048.017-.093.051-.135a.18.18 0 0 1 .134-.051h1.802c.055 0 .1.017.134.051a.207.207 0 0 1 .051.135v3.44c0 .027.01.048.031.061.02.007.035 0 .041-.02.426-.601 1.058-.901 1.895-.901ZM35.069 96.815c-.02.021-.028.042-.02.063a.07.07 0 0 0 .061.03h4.047c.048 0 .09.018.124.052a.157.157 0 0 1 .062.125v1.46c0 .049-.021.09-.062.125a.168.168 0 0 1-.124.052h-6.714a.18.18 0 0 1-.134-.052.17.17 0 0 1-.051-.125v-1.388c0-.09.03-.165.092-.228.488-.476.985-.998 1.493-1.564.508-.566.828-.918.958-1.056.275-.332.556-.65.845-.953.906-1.009 1.359-1.758 1.359-2.248 0-.353-.124-.643-.37-.87-.248-.222-.57-.332-.969-.332-.398 0-.72.11-.968.331-.254.228-.38.529-.38.902v.373a.17.17 0 0 1-.052.124.168.168 0 0 1-.124.052h-1.76a.168.168 0 0 1-.124-.052.157.157 0 0 1-.062-.124v-.705a2.67 2.67 0 0 1 .515-1.44 2.972 2.972 0 0 1 1.225-.953 4.345 4.345 0 0 1 1.73-.331c.707 0 1.322.134 1.844.404.521.262.923.618 1.204 1.067.289.456.433.956.433 1.502 0 .421-.106.853-.32 1.295-.205.442-.518.918-.936 1.43-.31.386-.642.773-1 1.16-.356.38-.888.928-1.596 1.647l-.226.227Zm9.124 2.072c-1.099 0-1.964-.307-2.595-.922-.639-.614-.958-1.454-.958-2.517v-3.967c0-1.043.32-1.869.958-2.476.631-.615 1.496-.922 2.595-.922 1.091 0 1.96.307 2.605.922.639.607.958 1.433.958 2.476v3.967c0 1.064-.32 1.903-.958 2.517-.645.615-1.514.922-2.605.922Zm0-1.813c.446 0 .8-.138 1.06-.414.268-.276.402-.646.402-1.108v-4.134c0-.455-.134-.821-.401-1.098-.261-.276-.615-.414-1.061-.414-.44 0-.79.138-1.05.414-.268.277-.402.643-.402 1.098v4.134c0 .462.134.832.401 1.108.261.276.611.414 1.05.414Zm7.744-.259c-.02.021-.024.042-.01.063.006.02.027.03.061.03h4.047c.048 0 .09.018.124.052a.17.17 0 0 1 .051.125v1.46a.17.17 0 0 1-.051.125.168.168 0 0 1-.124.052h-6.724a.168.168 0 0 1-.124-.052.17.17 0 0 1-.051-.125v-1.388c0-.09.027-.165.082-.228a27.4 27.4 0 0 0 1.493-1.564c.508-.566.828-.918.958-1.056.282-.332.567-.65.855-.953.906-1.009 1.36-1.758 1.36-2.248 0-.353-.124-.643-.372-.87-.254-.222-.58-.332-.978-.332s-.72.11-.968.331c-.247.228-.37.529-.37.902v.373a.17.17 0 0 1-.052.124.18.18 0 0 1-.134.052h-1.76a.168.168 0 0 1-.124-.052.17.17 0 0 1-.052-.124v-.705a2.606 2.606 0 0 1 .505-1.44 2.96 2.96 0 0 1 1.235-.953 4.317 4.317 0 0 1 1.72-.331c.707 0 1.322.134 1.843.404.529.262.934.618 1.216 1.067.281.456.422.956.422 1.502 0 .421-.103.853-.31 1.295-.212.442-.528.918-.947 1.43-.309.386-.642.773-.998 1.16-.357.38-.89.928-1.597 1.647l-.226.227Zm12.213-2.89c.151.49.227.967.227 1.43 0 .51-.08.974-.237 1.388a2.983 2.983 0 0 1-1.205 1.523c-.584.373-1.263.56-2.039.56-.755 0-1.418-.184-1.988-.55a2.938 2.938 0 0 1-1.215-1.492 4.093 4.093 0 0 1-.226-.828v-.032c0-.11.058-.165.175-.165h1.812c.096 0 .162.055.196.165.007.063.02.114.041.156a.54.54 0 0 1 .041.103c.103.263.254.463.453.601.2.138.433.207.7.207.282 0 .526-.075.732-.227.206-.145.36-.353.463-.622.096-.2.144-.463.144-.787 0-.29-.044-.55-.133-.777a.997.997 0 0 0-.412-.601 1.267 1.267 0 0 0-.732-.218c-.281 0-.542.066-.782.197a1.01 1.01 0 0 0-.474.518c-.027.097-.093.145-.196.145h-1.833a.18.18 0 0 1-.133-.052.17.17 0 0 1-.052-.124v-6.06a.17.17 0 0 1 .052-.124.18.18 0 0 1 .133-.052h6.169c.048 0 .09.017.123.052a.17.17 0 0 1 .052.124v1.46a.17.17 0 0 1-.052.125.168.168 0 0 1-.123.052h-4.17c-.049 0-.073.028-.073.083l-.02 2.217c0 .069.03.086.092.051.447-.29.965-.435 1.555-.435.694 0 1.301.176 1.823.529.529.359.9.846 1.112 1.46Z"
    fill="#fff" />
  <defs>
    <linearGradient id="a" x1="48.834" y1="9" x2="48.834" y2="30.132" gradientUnits="userSpaceOnUse">
      <stop stop-color="#fff" />
      <stop offset="1" stop-color="#BBC0C7" />
    </linearGradient>
  </defs>
</svg>