<svg width="98" height="127" fill="none" xmlns="http://www.w3.org/2000/svg">
  <g clip-path="url(#a)">
    <path d="m8.741 93.127 40.677 20.822L88.55 93.127V11.706H8.74v81.421Z" fill="#0E132D" />
    <path opacity=".3" d="M89.374 12.017 7.917 94.577l42.222 21.03 39.235-20.2v-83.39Z" fill="#1A1F39" />
    <path
      d="M6.064 38.846V94.89l1.442.725 40.676 20.821 1.236.622 1.236-.622 39.235-20.821 1.441-.725V9.012H6.064v29.834Zm2.677 54.489v-81.63h79.912v81.63l-39.235 20.821L8.741 93.335Z"
      fill="#333852" />
    <path
      d="M48.697 13.052c.412 0 .824 0 1.236.104l-1.236 2.383c-1.854-.104-3.501 1.346-3.604 3.21-.103 1.865 1.338 3.523 3.192 3.627h.412c.824 0 1.648-.311 2.265-.83l1.34 2.28a6.217 6.217 0 0 1-3.605 1.14c-3.295.103-6.076-2.383-6.179-5.698-.103-3.315 2.369-6.112 5.664-6.216h.515Zm4.222 5.076 1.545 2.59-1.545 2.486-1.442-2.486h-2.986l1.545-2.59h2.883Zm-2.471-.932c0-.414.103-.829.309-1.14.206-.31.617-.621.926-.828l.206-.104c.412-.207.515-.31.515-.518 0-.207-.309-.414-.515-.414-.412 0-.72.207-.927.621l-.514-.518c.103-.207.309-.414.514-.621.31-.207.618-.207.927-.207.31 0 .721.103.927.31.206.208.412.518.412.83 0 .517-.309.932-.927 1.139l-.309.207c-.309.207-.515.31-.618.621h1.854v.725l-2.78-.103Zm-1.751 12.949 9.783-5.594V9.012H38.811v15.435l9.886 5.698Z"
      fill="url(#b)" />
    <path d="M93.287 66.81H4.107L.812 74.061l3.295 7.252h89.18l3.192-7.252-3.192-7.25Z" fill="#23CCA2" />
    <path
      d="M32.53 78.107c-.076 0-.124-.034-.145-.104l-1.874-7.013-.01-.041c0-.062.037-.093.113-.093h1.009c.075 0 .123.034.144.103l1.174 4.724c.007.02.017.031.031.031.014 0 .024-.01.03-.031l1.123-4.724c.02-.069.066-.103.134-.103h.989c.075 0 .123.034.144.103l1.194 4.734c.007.021.018.031.031.031.014 0 .025-.01.031-.03l1.154-4.735c.02-.069.068-.103.144-.103h.958c.096 0 .133.045.113.134l-1.782 7.013c-.02.07-.068.104-.144.104h-.958c-.075 0-.123-.034-.144-.104l-1.205-4.94c-.006-.022-.017-.035-.03-.042-.014 0-.024.014-.031.041l-1.154 4.941c-.02.07-.065.104-.134.104h-.906Zm7.63 0a.128.128 0 0 1-.093-.041.112.112 0 0 1-.03-.083V70.98c0-.035.01-.062.03-.083a.128.128 0 0 1 .093-.041h.947c.035 0 .062.014.083.041.027.02.04.048.04.083v7.003a.099.099 0 0 1-.04.083.098.098 0 0 1-.083.041h-.947Zm6.766-7.127c0-.035.01-.062.03-.083a.128.128 0 0 1 .093-.041h.948c.034 0 .061.014.082.041.027.02.041.048.041.083v7.003a.099.099 0 0 1-.041.083.098.098 0 0 1-.082.041h-.917c-.069 0-.117-.028-.144-.083l-2.966-4.89c-.014-.02-.027-.03-.041-.03-.014.007-.02.024-.02.051l.02 4.828a.099.099 0 0 1-.041.083.098.098 0 0 1-.083.041h-.947a.128.128 0 0 1-.093-.041.112.112 0 0 1-.03-.083V70.98c0-.035.01-.062.03-.083a.128.128 0 0 1 .093-.041h.916c.07 0 .117.027.145.083l2.955 4.889c.014.02.028.028.041.02.014 0 .02-.013.02-.04l-.01-4.828Zm7.435-.124c.034 0 .061.014.082.041.028.02.041.048.041.083v.798a.098.098 0 0 1-.041.082.097.097 0 0 1-.082.042h-1.895c-.035 0-.052.017-.052.052v6.029c0 .034-.01.062-.03.083a.128.128 0 0 1-.093.041h-.948a.098.098 0 0 1-.082-.041.099.099 0 0 1-.041-.083v-6.03c0-.034-.017-.051-.052-.051h-1.822a.128.128 0 0 1-.093-.041.112.112 0 0 1-.031-.083v-.798c0-.035.01-.062.03-.083a.128.128 0 0 1 .094-.041h5.015Zm6.106.911a.099.099 0 0 1-.04.083.098.098 0 0 1-.083.042h-3.512c-.034 0-.051.017-.051.051v1.938c0 .034.017.051.051.051h2.358a.15.15 0 0 1 .093.031c.02.028.03.06.03.094v.787c0 .035-.01.066-.03.093a.15.15 0 0 1-.093.031h-2.358c-.034 0-.051.017-.051.052v2c0 .034.017.051.051.051h3.512c.034 0 .062.014.082.042.028.02.041.048.041.082v.788a.099.099 0 0 1-.04.083.098.098 0 0 1-.083.041H55.71a.128.128 0 0 1-.093-.041.112.112 0 0 1-.03-.083V70.98c0-.035.01-.062.03-.083a.128.128 0 0 1 .093-.041h4.634c.034 0 .062.014.082.041.028.02.041.048.041.083v.787Zm5.263 6.34a.146.146 0 0 1-.145-.093l-1.359-2.984c-.014-.027-.034-.041-.062-.041h-1.236c-.034 0-.051.017-.051.052v2.942a.099.099 0 0 1-.041.083.098.098 0 0 1-.083.041h-.947a.128.128 0 0 1-.093-.041.112.112 0 0 1-.03-.083V70.98c0-.035.01-.062.03-.083a.128.128 0 0 1 .093-.041h2.832c.419 0 .79.086 1.112.259.323.18.573.428.752.746.178.324.268.694.268 1.108 0 .477-.124.88-.371 1.212-.24.338-.577.573-1.01.704-.013 0-.023.007-.03.021a.044.044 0 0 0 0 .041l1.452 3.015a.16.16 0 0 1 .02.062c0 .055-.037.083-.113.083h-.989Zm-2.802-6.215c-.034 0-.051.017-.051.051v2.062c0 .034.017.052.051.052h1.545c.33 0 .597-.1.803-.3.2-.194.299-.453.299-.778 0-.324-.1-.587-.299-.787-.206-.2-.473-.3-.803-.3H62.93Z"
      fill="#242530" />
    <path
      d="M18.36 58c-.049.02-.049.042 0 .062.713.373 1.07.991 1.07 1.855 0 .739-.25 1.298-.751 1.678-.495.373-1.147.56-1.957.56h-2.935a.128.128 0 0 1-.093-.042.13.13 0 0 1-.04-.093v-7.708a.13.13 0 0 1 .04-.093.128.128 0 0 1 .093-.041h2.842c1.792 0 2.688.728 2.688 2.185 0 .76-.32 1.306-.958 1.637Zm-3.049-2.445c-.04 0-.062.021-.062.063v1.771c0 .041.021.062.062.062h1.318c.357 0 .635-.086.834-.259.193-.166.289-.39.289-.673 0-.297-.096-.532-.288-.705-.2-.172-.478-.259-.835-.259h-1.318Zm1.411 5.211c.35 0 .621-.09.814-.27.199-.179.298-.424.298-.735 0-.31-.1-.556-.298-.735-.193-.18-.467-.27-.824-.27h-1.4c-.042 0-.063.021-.063.063v1.885c0 .041.021.062.062.062h1.411Zm7.188-4.33c0-.041.01-.076.03-.104a.166.166 0 0 1 .104-.03h1.318c.041 0 .076.01.103.03a.141.141 0 0 1 .041.104v5.584a.13.13 0 0 1-.041.093.14.14 0 0 1-.103.041h-1.318a.14.14 0 0 1-.103-.041.152.152 0 0 1-.031-.093v-.394c0-.02-.01-.031-.03-.031-.015-.007-.028 0-.042.02-.302.415-.769.622-1.4.622-.577 0-1.051-.176-1.422-.528-.37-.346-.556-.836-.556-1.471v-3.802a.14.14 0 0 1 .041-.104.15.15 0 0 1 .093-.03h1.318a.15.15 0 0 1 .093.03.14.14 0 0 1 .041.104v3.408c0 .304.082.55.247.736.158.193.381.29.67.29.26 0 .473-.08.638-.239.165-.152.268-.355.309-.61v-3.585Zm5.097 5.801c-.508 0-.95-.073-1.328-.218-.378-.145-.67-.345-.875-.6a1.363 1.363 0 0 1-.32-.88v-.115a.14.14 0 0 1 .042-.103.166.166 0 0 1 .103-.032h1.256a.15.15 0 0 1 .093.032.141.141 0 0 1 .04.103v.01c0 .166.093.308.279.425.185.118.415.176.69.176.26 0 .47-.051.628-.155.158-.104.237-.228.237-.373 0-.138-.069-.242-.206-.31a3.45 3.45 0 0 0-.67-.218 6.94 6.94 0 0 1-.834-.26c-.48-.172-.865-.38-1.153-.62-.288-.242-.432-.591-.432-1.047 0-.56.216-1.005.648-1.336.433-.332 1.01-.498 1.73-.498.48 0 .903.076 1.267.228.364.16.645.38.844.663.2.276.3.594.3.953 0 .042-.015.073-.042.094-.02.027-.052.041-.093.041h-1.215a.127.127 0 0 1-.093-.041c-.027-.021-.04-.052-.04-.094 0-.165-.087-.307-.258-.424-.165-.11-.388-.166-.67-.166-.247 0-.45.045-.607.134-.165.09-.247.215-.247.373 0 .152.079.266.236.342.158.076.416.16.773.249l.288.072.34.094c.535.159.958.362 1.267.61.309.256.463.622.463 1.099 0 .56-.22.998-.659 1.316-.446.317-1.04.476-1.782.476Zm4.223-6.599a.843.843 0 0 1-.639-.259.875.875 0 0 1-.257-.642c0-.27.082-.487.247-.653.165-.165.38-.248.649-.248.26 0 .477.083.648.248.165.166.248.384.248.653 0 .256-.086.47-.258.642a.864.864 0 0 1-.638.26Zm-.68 6.516c-.041 0-.072-.014-.093-.041a.13.13 0 0 1-.041-.093v-5.594c0-.042.014-.076.041-.104.02-.028.052-.041.093-.041h1.328c.035 0 .066.013.093.041a.14.14 0 0 1 .041.104v5.593a.129.129 0 0 1-.041.094.128.128 0 0 1-.093.041H32.55Zm5.746-5.946c.604 0 1.088.187 1.452.56.37.372.556.877.556 1.512v3.74c0 .034-.01.065-.03.093a.14.14 0 0 1-.104.041h-1.328a.128.128 0 0 1-.093-.041.13.13 0 0 1-.041-.093V58.61c0-.303-.082-.552-.247-.745-.172-.187-.398-.28-.68-.28-.281 0-.504.093-.67.28-.17.193-.257.441-.257.745v3.409a.129.129 0 0 1-.04.093.128.128 0 0 1-.093.041h-1.329c-.041 0-.072-.014-.093-.041a.13.13 0 0 1-.04-.093v-5.584c0-.041.013-.076.04-.104.021-.02.052-.03.093-.03h1.329a.15.15 0 0 1 .092.03.14.14 0 0 1 .041.104v.394c0 .027.007.044.021.051.014.007.024.004.03-.01.31-.442.773-.663 1.391-.663Zm8.28 2.414c.04.29.054.614.04.973-.006.09-.054.135-.143.135H42.97c-.048 0-.065.017-.051.052.027.152.072.304.134.456.192.428.59.642 1.194.642.488-.007.869-.204 1.143-.59.035-.049.069-.073.103-.073.02 0 .048.014.083.041l.813.819c.041.034.062.065.062.093 0 .02-.017.052-.051.093-.248.311-.567.553-.958.725-.398.173-.83.26-1.298.26-.645 0-1.194-.15-1.647-.446a2.501 2.501 0 0 1-.968-1.243c-.158-.38-.237-.877-.237-1.492 0-.421.058-.79.175-1.108.171-.539.474-.967.906-1.285.433-.318.947-.476 1.545-.476.755 0 1.363.22 1.823.663.453.435.73 1.022.834 1.76Zm-2.647-1.036c-.474 0-.786.224-.937.673a4.23 4.23 0 0 0-.082.363c0 .041.02.062.061.062h1.957c.048 0 .065-.02.052-.062a9.787 9.787 0 0 0-.062-.321.976.976 0 0 0-.36-.529c-.166-.124-.375-.186-.629-.186Zm5.921 4.651c-.508 0-.95-.073-1.328-.218-.378-.145-.67-.345-.875-.6a1.363 1.363 0 0 1-.32-.88v-.115a.14.14 0 0 1 .042-.103.166.166 0 0 1 .102-.032h1.257a.15.15 0 0 1 .093.032.141.141 0 0 1 .04.103v.01c0 .166.093.308.279.425.185.118.415.176.69.176.26 0 .47-.051.628-.155.158-.104.237-.228.237-.373 0-.138-.069-.242-.206-.31a3.45 3.45 0 0 0-.67-.218 6.94 6.94 0 0 1-.834-.26c-.48-.172-.865-.38-1.153-.62-.288-.242-.432-.591-.432-1.047 0-.56.216-1.005.648-1.336.433-.332 1.01-.498 1.73-.498.48 0 .903.076 1.267.228.364.16.645.38.844.663.2.276.299.594.299.953 0 .042-.014.073-.041.094-.02.027-.052.041-.093.041H50.84a.127.127 0 0 1-.093-.041c-.027-.021-.04-.052-.04-.094 0-.165-.087-.307-.258-.424-.165-.11-.388-.166-.67-.166-.247 0-.45.045-.607.134-.165.09-.248.215-.248.373 0 .152.08.266.237.342.158.076.416.16.773.249l.288.072.34.094c.535.159.958.362 1.267.61.308.256.463.622.463 1.099 0 .56-.22.998-.66 1.316-.445.317-1.04.476-1.78.476Zm5.602 0c-.508 0-.95-.073-1.328-.218-.378-.145-.67-.345-.875-.6a1.39 1.39 0 0 1-.31-.88v-.115a.14.14 0 0 1 .042-.103.15.15 0 0 1 .093-.032h1.256c.041 0 .075.01.103.032.02.027.03.062.03.103v.01c0 .166.093.308.279.425.185.118.419.176.7.176.254 0 .46-.051.618-.155.165-.104.247-.228.247-.373 0-.138-.069-.242-.206-.31a3.454 3.454 0 0 0-.67-.218 6.798 6.798 0 0 1-.844-.26c-.48-.172-.865-.38-1.153-.62-.288-.242-.432-.591-.432-1.047 0-.56.22-1.005.659-1.336.432-.332 1.009-.498 1.73-.498.48 0 .902.076 1.266.228.357.16.639.38.845.663.199.276.298.594.298.953 0 .042-.013.073-.04.094a.127.127 0 0 1-.094.041h-1.215c-.04 0-.072-.014-.092-.041-.028-.021-.042-.052-.042-.094 0-.165-.085-.307-.257-.424-.172-.11-.395-.166-.67-.166-.253 0-.46.045-.617.134-.158.09-.237.215-.237.373 0 .152.079.266.237.342.15.076.408.16.772.249a18.553 18.553 0 0 1 .618.166c.535.159.961.362 1.277.61.309.256.463.622.463 1.099 0 .56-.223.998-.67 1.316-.438.317-1.032.476-1.78.476Zm7.487-.083c-.082 0-.134-.038-.154-.114l-2.009-7.717-.01-.042c0-.069.041-.103.124-.103h1.41c.076 0 .124.038.145.114l1.07 4.64c.008.028.021.042.042.042.014 0 .024-.014.03-.041l1.04-4.631c.021-.083.07-.124.145-.124h1.37c.089 0 .144.038.164.114l1.133 4.64c.007.021.017.035.031.042.014 0 .024-.014.03-.041l1.051-4.631c.02-.083.069-.124.144-.124h1.34c.102 0 .143.048.123.145l-1.864 7.717c-.02.076-.072.114-.155.114H66.79c-.075 0-.123-.038-.144-.114l-1.153-4.93c-.007-.035-.02-.053-.041-.053-.014 0-.024.018-.031.052l-1.071 4.92c-.02.084-.072.125-.155.125H62.94Zm8.938-6.516a.864.864 0 0 1-.638-.259.875.875 0 0 1-.257-.642c0-.27.082-.487.247-.653a.896.896 0 0 1 .648-.248c.268 0 .485.083.65.248.164.166.246.384.246.653 0 .256-.085.47-.257.642a.864.864 0 0 1-.639.26Zm-.68 6.516a.128.128 0 0 1-.092-.041.129.129 0 0 1-.041-.093v-5.594a.14.14 0 0 1 .041-.104.128.128 0 0 1 .093-.041h1.328c.035 0 .066.013.093.041a.14.14 0 0 1 .041.104v5.593a.129.129 0 0 1-.041.094.128.128 0 0 1-.093.041h-1.328Zm6.046-4.703c0 .035-.01.066-.031.093a.14.14 0 0 1-.103.042h-1.081c-.042 0-.062.017-.062.052v2.424c0 .248.051.435.154.559.103.117.268.176.495.176h.37a.14.14 0 0 1 .103.042c.02.027.031.058.031.093v1.087c0 .083-.044.132-.134.145-.316.014-.542.021-.68.021-.624 0-1.091-.103-1.4-.31-.309-.208-.467-.601-.474-1.181v-3.056c0-.035-.02-.052-.061-.052h-.65a.128.128 0 0 1-.092-.042.13.13 0 0 1-.041-.093v-1.015c0-.041.014-.076.041-.104a.15.15 0 0 1 .093-.03h.649c.04 0 .061-.021.061-.063v-1.357c0-.034.01-.066.031-.093a.139.139 0 0 1 .103-.042h1.267c.034 0 .065.014.093.042a.13.13 0 0 1 .04.093v1.357c0 .042.021.062.063.062h1.08c.042 0 .076.01.104.031.02.028.03.063.03.104v1.015Zm4.006-1.243c.604 0 1.091.187 1.462.56.37.372.556.877.556 1.512v3.74a.129.129 0 0 1-.041.093.14.14 0 0 1-.103.041h-1.318a.14.14 0 0 1-.103-.041.152.152 0 0 1-.031-.093V58.61c0-.303-.086-.552-.258-.745-.171-.187-.398-.28-.68-.28a.868.868 0 0 0-.669.28c-.171.193-.257.441-.257.745v3.409a.13.13 0 0 1-.041.093.128.128 0 0 1-.093.041h-1.328a.128.128 0 0 1-.093-.041.129.129 0 0 1-.041-.093v-7.708c0-.034.013-.065.04-.093a.128.128 0 0 1 .094-.041h1.328c.034 0 .065.014.093.041a.13.13 0 0 1 .04.093v2.518c0 .027.008.044.021.051.014.007.028.004.042-.01.309-.442.769-.663 1.38-.663ZM20.985 44.026a.129.129 0 0 1-.04.093.14.14 0 0 1-.104.041h-3.707c-.041 0-.062.021-.062.063v1.76c0 .042.02.063.062.063h2.43c.041 0 .076.01.103.03.02.029.031.063.031.105v1.108c0 .035-.01.066-.03.093a.14.14 0 0 1-.104.042h-2.43c-.041 0-.062.017-.062.051v1.844c0 .042.02.063.062.063h3.707a.14.14 0 0 1 .103.04.129.129 0 0 1 .041.094v1.108a.13.13 0 0 1-.04.094.14.14 0 0 1-.104.041H15.61a.128.128 0 0 1-.093-.041.13.13 0 0 1-.041-.094v-7.707a.13.13 0 0 1 .041-.093.128.128 0 0 1 .093-.041h5.231a.14.14 0 0 1 .103.041.129.129 0 0 1 .041.093v1.109Zm3.327.787c.494 0 .933.087 1.318.26.384.165.683.396.896.693.212.297.319.629.319.995v3.863c0 .035-.01.066-.031.094a.14.14 0 0 1-.103.041h-1.318a.14.14 0 0 1-.103-.041.13.13 0 0 1-.041-.094v-.372c0-.028-.007-.045-.02-.052-.015-.007-.028 0-.042.02-.316.422-.827.632-1.534.632-.59 0-1.065-.145-1.422-.435-.363-.29-.545-.714-.545-1.274 0-.587.202-1.043.607-1.367.412-.318.996-.477 1.75-.477h1.154c.035 0 .052-.02.052-.062v-.248c0-.25-.076-.446-.227-.59-.15-.14-.377-.208-.68-.208a1.19 1.19 0 0 0-.576.124.556.556 0 0 0-.299.352c-.027.083-.079.121-.154.114l-1.37-.176c-.09-.02-.13-.055-.123-.103.027-.325.154-.615.38-.87.22-.256.515-.456.886-.601a3.283 3.283 0 0 1 1.226-.218Zm-.227 4.838c.323 0 .597-.087.824-.26a.808.808 0 0 0 .34-.672v-.404c0-.042-.017-.063-.052-.063h-.813c-.344 0-.611.066-.803.197a.612.612 0 0 0-.289.55c0 .2.072.358.216.476.145.117.337.176.577.176Zm6.21 1.191c-.508 0-.951-.072-1.329-.218-.377-.145-.67-.345-.875-.6a1.39 1.39 0 0 1-.309-.88v-.115a.14.14 0 0 1 .041-.103c.02-.021.052-.031.093-.031h1.256a.15.15 0 0 1 .093.03.14.14 0 0 1 .041.104v.01c0 .166.093.308.278.425.186.118.419.176.7.176.254 0 .46-.051.618-.155.158-.103.237-.228.237-.373 0-.138-.065-.242-.195-.31a3.454 3.454 0 0 0-.67-.218 6.796 6.796 0 0 1-.844-.26c-.48-.172-.865-.379-1.154-.62-.288-.242-.432-.591-.432-1.047 0-.56.22-1.005.659-1.336.432-.332 1.006-.497 1.72-.497.487 0 .91.076 1.266.227.364.16.646.38.845.663.206.277.309.594.309.953 0 .042-.014.073-.042.094a.14.14 0 0 1-.103.041h-1.204a.14.14 0 0 1-.103-.041c-.028-.021-.042-.052-.042-.094 0-.165-.082-.307-.247-.424-.171-.11-.398-.166-.68-.166-.247 0-.45.045-.607.135-.158.09-.237.214-.237.372 0 .152.076.266.227.342.158.076.418.16.782.249a18.874 18.874 0 0 1 .618.166c.536.159.958.362 1.267.61.309.256.463.623.463 1.099 0 .56-.22.998-.659 1.316-.44.317-1.033.476-1.781.476Zm4.222-6.599a.864.864 0 0 1-.639-.259.875.875 0 0 1-.257-.642c0-.27.082-.487.247-.652a.897.897 0 0 1 .649-.25c.268 0 .484.084.649.25.164.165.247.383.247.652 0 .256-.086.47-.258.642a.843.843 0 0 1-.638.26Zm-.68 6.516a.128.128 0 0 1-.093-.041.13.13 0 0 1-.04-.094v-5.593a.14.14 0 0 1 .04-.104.128.128 0 0 1 .093-.041h1.329c.034 0 .065.014.092.041a.141.141 0 0 1 .041.104v5.593a.13.13 0 0 1-.04.094.128.128 0 0 1-.093.041h-1.329Zm7.868-3.532c.04.29.055.614.04.974-.006.09-.054.134-.143.134H38.1c-.048 0-.065.017-.051.052.027.152.069.304.124.456.199.428.6.642 1.204.642.481-.007.862-.204 1.143-.59.035-.049.07-.073.103-.073.021 0 .049.014.083.041l.813.819c.035.034.052.066.052.093 0 .02-.014.052-.041.093-.248.311-.567.553-.958.725-.398.173-.83.26-1.298.26-.645 0-1.194-.149-1.647-.446a2.502 2.502 0 0 1-.968-1.243c-.158-.38-.237-.877-.237-1.492 0-.421.055-.79.165-1.108.178-.539.484-.967.916-1.285.433-.317.948-.476 1.545-.476.755 0 1.363.22 1.823.663.453.435.73 1.022.834 1.76Zm-2.647-1.036c-.474 0-.786.224-.937.673a4.23 4.23 0 0 0-.082.363c0 .041.02.062.061.062h1.957c.048 0 .062-.02.041-.062a11.812 11.812 0 0 0-.051-.321.977.977 0 0 0-.36-.529c-.165-.124-.375-.186-.629-.186Zm5.911 4.651c-.501 0-.94-.072-1.318-.218-.378-.145-.67-.345-.875-.6a1.363 1.363 0 0 1-.32-.88v-.115a.14.14 0 0 1 .042-.103.15.15 0 0 1 .092-.031h1.267a.15.15 0 0 1 .093.03.141.141 0 0 1 .04.104v.01c0 .166.093.308.279.425.185.118.415.176.69.176.26 0 .47-.051.628-.155.158-.103.237-.228.237-.373 0-.138-.069-.242-.206-.31a3.45 3.45 0 0 0-.67-.218 6.938 6.938 0 0 1-.834-.26c-.487-.172-.871-.379-1.153-.62-.288-.242-.432-.591-.432-1.047 0-.56.216-1.005.648-1.336.433-.332 1.01-.497 1.73-.497.48 0 .903.076 1.267.227.364.16.645.38.844.663.2.277.3.594.3.953 0 .042-.015.073-.042.094a.128.128 0 0 1-.093.041h-1.215a.127.127 0 0 1-.093-.041c-.027-.021-.04-.052-.04-.094 0-.165-.087-.307-.258-.424-.165-.11-.388-.166-.67-.166a1.28 1.28 0 0 0-.617.135c-.158.09-.237.214-.237.372 0 .152.079.266.236.342.151.076.409.16.773.249l.288.073.34.093c.535.159.958.362 1.267.61.309.256.463.623.463 1.099 0 .56-.22.998-.659 1.316-.446.317-1.044.476-1.792.476Zm6.704-4.786a.13.13 0 0 1-.041.093.14.14 0 0 1-.103.042h-1.081c-.042 0-.062.017-.062.052v2.424c0 .248.051.435.154.56.103.117.268.175.495.175h.37a.14.14 0 0 1 .103.042.129.129 0 0 1 .041.093v1.087c0 .083-.048.132-.144.146-.316.013-.542.02-.68.02-.624 0-1.09-.103-1.4-.31-.309-.208-.467-.601-.474-1.181v-3.056c0-.035-.02-.052-.061-.052h-.65a.128.128 0 0 1-.092-.042.13.13 0 0 1-.041-.093v-1.015c0-.041.014-.076.041-.104a.15.15 0 0 1 .093-.03h.649c.04 0 .062-.021.062-.063v-1.357a.13.13 0 0 1 .04-.093c.021-.028.052-.041.093-.041h1.267c.041 0 .072.013.093.04a.13.13 0 0 1 .04.094v1.357c0 .042.021.062.063.062h1.08c.042 0 .076.01.104.031a.141.141 0 0 1 .041.104v1.015Zm8.794-3.273a.14.14 0 0 1 .103.041.129.129 0 0 1 .042.093v1.12c0 .04-.014.072-.042.092a.139.139 0 0 1-.102.042h-2.03c-.034 0-.05.02-.05.062v6.392a.13.13 0 0 1-.042.093.128.128 0 0 1-.093.041h-1.328a.128.128 0 0 1-.093-.041.13.13 0 0 1-.04-.094v-6.391c0-.041-.022-.062-.063-.062h-1.967c-.04 0-.072-.014-.092-.042-.028-.02-.041-.051-.041-.093v-1.119c0-.034.013-.065.04-.093.021-.027.052-.041.093-.041h5.706Zm2.678 8.07c-.632 0-1.174-.17-1.627-.508-.453-.332-.766-.787-.937-1.367a4.123 4.123 0 0 1-.155-1.16c0-.45.052-.85.155-1.202.178-.567.494-1.009.947-1.326.453-.318.996-.477 1.627-.477.618 0 1.147.155 1.586.466.44.318.748.76.927 1.326.123.38.185.777.185 1.192 0 .407-.055.79-.164 1.15-.165.593-.47 1.06-.917 1.398-.453.338-.996.507-1.627.507Zm0-1.378c.247 0 .46-.076.638-.228a1.28 1.28 0 0 0 .371-.632c.062-.242.093-.508.093-.798 0-.317-.031-.587-.093-.808a1.241 1.241 0 0 0-.391-.6.94.94 0 0 0-.628-.218c-.261 0-.474.072-.639.217a1.212 1.212 0 0 0-.37.601c-.062.187-.093.456-.093.808 0 .346.027.611.082.798.076.27.203.48.381.632a.967.967 0 0 0 .649.228Zm6.24 1.284a.128.128 0 0 1-.092-.041.13.13 0 0 1-.042-.094v-7.707a.13.13 0 0 1 .042-.093.128.128 0 0 1 .092-.041h2.832c.57 0 1.068.1 1.493.3.426.2.756.484.99.85a2.3 2.3 0 0 1 .35 1.263v3.15a2.3 2.3 0 0 1-.35 1.263c-.234.366-.564.65-.99.85-.425.2-.923.3-1.493.3h-2.832Zm1.463-1.44c0 .042.017.063.051.063h1.38c.343 0 .621-.118.834-.353.22-.235.333-.549.34-.942v-2.621c0-.4-.106-.718-.32-.953-.219-.235-.51-.352-.874-.352h-1.36c-.034 0-.051.02-.051.062v5.096Zm7.867 1.533c-.631 0-1.174-.169-1.627-.507-.453-.332-.762-.787-.927-1.367a3.884 3.884 0 0 1-.164-1.16c0-.45.055-.85.164-1.202.172-.567.484-1.009.938-1.326.453-.318.998-.477 1.637-.477.618 0 1.146.155 1.586.466.432.318.741.76.927 1.326.116.38.175.777.175 1.192 0 .407-.052.79-.155 1.15-.165.593-.474 1.06-.927 1.398-.446.338-.988.507-1.627.507Zm0-1.377a.928.928 0 0 0 .639-.228 1.28 1.28 0 0 0 .37-.632c.062-.242.093-.508.093-.798 0-.317-.03-.587-.092-.808a1.277 1.277 0 0 0-.381-.6.956.956 0 0 0-.639-.218.955.955 0 0 0-.638.217 1.212 1.212 0 0 0-.371.601c-.055.187-.083.456-.083.808 0 .346.024.611.073.798.075.27.202.48.38.632a.967.967 0 0 0 .65.228ZM35.269 96.815c-.021.021-.028.042-.021.063a.07.07 0 0 0 .062.03h4.047c.048 0 .09.018.123.052a.157.157 0 0 1 .062.125v1.46c0 .049-.02.09-.062.125a.168.168 0 0 1-.123.052h-6.714a.18.18 0 0 1-.134-.052.17.17 0 0 1-.052-.125v-1.388c0-.09.031-.165.093-.228.487-.476.985-.998 1.493-1.564.508-.566.827-.918.958-1.056.275-.332.556-.65.844-.953.907-1.009 1.36-1.758 1.36-2.248 0-.353-.124-.643-.371-.87-.247-.222-.57-.332-.968-.332s-.721.11-.968.331c-.254.228-.381.529-.381.902v.373a.17.17 0 0 1-.052.124.168.168 0 0 1-.123.052H32.58a.168.168 0 0 1-.124-.052.157.157 0 0 1-.062-.124v-.705a2.67 2.67 0 0 1 .515-1.44 2.972 2.972 0 0 1 1.226-.953 4.345 4.345 0 0 1 1.73-.331c.707 0 1.322.134 1.843.404.522.262.924.618 1.205 1.067.288.456.433.956.433 1.502 0 .421-.107.853-.32 1.295-.206.442-.518.918-.937 1.43-.309.386-.642.773-.999 1.16-.357.38-.889.928-1.596 1.647l-.226.227Zm9.123 2.072c-1.098 0-1.963-.307-2.595-.922-.638-.614-.957-1.454-.957-2.517v-3.967c0-1.043.319-1.869.957-2.476.632-.615 1.497-.922 2.596-.922 1.091 0 1.96.307 2.605.922.638.607.958 1.433.958 2.476v3.967c0 1.064-.32 1.903-.958 2.517-.645.615-1.514.922-2.605.922Zm0-1.813c.447 0 .8-.138 1.061-.414.268-.276.402-.646.402-1.108v-4.134c0-.455-.134-.821-.402-1.098-.26-.276-.614-.414-1.06-.414-.44 0-.79.138-1.05.414-.269.277-.403.643-.403 1.098v4.134c0 .462.134.832.402 1.108.261.276.611.414 1.05.414Zm7.744-.259c-.02.021-.024.042-.01.063.007.02.028.03.062.03h4.047c.048 0 .09.018.124.052a.17.17 0 0 1 .051.125v1.46a.17.17 0 0 1-.051.125.168.168 0 0 1-.124.052h-6.724a.168.168 0 0 1-.124-.052.17.17 0 0 1-.051-.125v-1.388c0-.09.027-.165.082-.228a27.4 27.4 0 0 0 1.493-1.564c.508-.566.827-.918.958-1.056.281-.332.566-.65.855-.953.906-1.009 1.359-1.758 1.359-2.248 0-.353-.124-.643-.37-.87-.255-.222-.581-.332-.98-.332-.397 0-.72.11-.967.331-.247.228-.37.529-.37.902v.373a.17.17 0 0 1-.052.124.18.18 0 0 1-.134.052h-1.761a.168.168 0 0 1-.124-.052.17.17 0 0 1-.051-.124v-.705a2.606 2.606 0 0 1 .504-1.44c.31-.414.721-.732 1.236-.953a4.317 4.317 0 0 1 1.72-.331c.707 0 1.321.134 1.843.404.529.262.934.618 1.215 1.067.282.456.422.956.422 1.502 0 .421-.102.853-.308 1.295-.213.442-.53.918-.948 1.43a21.44 21.44 0 0 1-.999 1.16c-.357.38-.889.928-1.596 1.647l-.227.227Zm12.214-2.89c.15.49.226.967.226 1.43 0 .51-.079.974-.236 1.388a2.983 2.983 0 0 1-1.205 1.523c-.584.373-1.264.56-2.04.56-.755 0-1.417-.184-1.987-.55a2.938 2.938 0 0 1-1.215-1.492 4.093 4.093 0 0 1-.227-.828v-.032c0-.11.059-.165.176-.165h1.812c.096 0 .161.055.196.165.006.063.02.114.04.156.021.041.035.076.042.103.103.263.254.463.453.601.2.138.433.207.7.207.282 0 .526-.075.731-.227.206-.145.361-.353.464-.622.096-.2.144-.463.144-.787 0-.29-.044-.55-.134-.777a.997.997 0 0 0-.412-.601 1.267 1.267 0 0 0-.73-.218c-.282 0-.543.066-.784.197a1.01 1.01 0 0 0-.473.518c-.028.097-.093.145-.196.145h-1.833a.18.18 0 0 1-.134-.052.17.17 0 0 1-.051-.124v-6.06a.17.17 0 0 1 .051-.124.18.18 0 0 1 .134-.052h6.169c.048 0 .089.017.123.052a.17.17 0 0 1 .052.124v1.46a.17.17 0 0 1-.052.125.168.168 0 0 1-.123.052H59.86c-.048 0-.072.028-.072.083l-.02 2.217c0 .069.03.086.092.051.446-.29.965-.435 1.555-.435.693 0 1.3.176 1.823.529.528.359.899.846 1.112 1.46Z"
      fill="#fff" />
  </g>
  <defs>
    <linearGradient id="b" x1="48.645" y1="9.012" x2="48.645" y2="30.145" gradientUnits="userSpaceOnUse">
      <stop stop-color="#fff" />
      <stop offset="1" stop-color="#BBC0C7" />
    </linearGradient>
    <clipPath id="a">
      <path fill="#fff" transform="translate(.4)" d="M0 0h96.8v126.38H0z" />
    </clipPath>
  </defs>
</svg>