<svg xmlns="http://www.w3.org/2000/svg" viewBox="0 0 470 284" fill="none">
  <path fill="white" fill-rule="evenodd"
    d="m234.571 68.974-21.434 20.978.898.877c17.621 17.204 26.427 25.806 30.068 35.591a45.886 45.886 0 0 1 0 32.053c-3.641 9.784-12.447 18.396-30.068 35.6l21.424 20.929 19.598-19.145c19.346-18.889 29.009-28.339 32.549-39.266a45.934 45.934 0 0 0 0-28.289c-3.54-10.928-13.203-20.377-32.549-39.266l-20.486-20.062Zm0 0-34.98-34.122c-19.335-18.89-29.008-28.339-40.225-31.787a49.042 49.042 0 0 0-28.968 0c-11.186 3.448-20.849 12.898-40.194 31.787L34.728 89.046C15.443 107.925 5.77 117.374 2.239 128.302a45.792 45.792 0 0 0 0 28.289c3.53 10.917 13.204 20.377 32.54 39.266l55.475 54.194c19.346 18.889 29.009 28.338 40.195 31.797a49.21 49.21 0 0 0 28.917-.04c11.176-3.458 20.849-12.908 40.185-31.797l35.868-35.039 34.979 34.162c19.336 18.899 29.009 28.339 40.185 31.797a49.2 49.2 0 0 0 28.968 0c11.186-3.458 20.849-12.898 40.195-31.797l55.476-54.194c19.335-18.889 29.008-28.338 32.539-39.256a45.834 45.834 0 0 0 0-28.299c-3.531-10.927-13.204-20.367-32.539-39.266l-55.476-54.194c-19.306-18.84-28.968-28.289-40.154-31.737a49.045 49.045 0 0 0-28.969 0c-11.176 3.448-20.848 12.898-40.184 31.787l-35.868 35Zm-21.434 20.978c-17.611 17.204-26.416 25.806-30.057 35.591a45.886 45.886 0 0 0 0 32.053c3.641 9.784 12.446 18.396 30.057 35.6l.898.877-14.444 14.11c-19.335 18.889-29.008 28.299-40.225 31.787a49.04 49.04 0 0 1-28.968 0c-11.186-3.448-20.849-12.898-40.194-31.787l-12.538-12.326c-19.376-18.889-29.039-28.349-32.58-39.266a45.937 45.937 0 0 1 0-28.289c3.541-10.928 13.204-20.377 32.58-39.266l12.608-12.317C109.62 57.82 119.283 48.38 130.47 44.922a49.043 49.043 0 0 1 28.968 0c11.176 3.459 20.849 12.898 40.185 31.797l13.515 13.233Z"
    clip-rule="evenodd" />
</svg>
